<svg xmlns="http://www.w3.org/2000/svg" width="1240" height="1241"><path d="M78 3.502C36.898 11.813 6.318 45.774 1.036 88.974c-1.446 11.823-1.446 1051.229 0 1063.052 1.531 12.521 4.43 22.264 9.96 33.474 13.549 27.463 38.166 46.362 67.842 52.085 8.657 1.669 24.371 1.844 32.728.364 12.208-2.162 27.03-8.207 37.434-15.266 6.64-4.505 18.592-16.309 23.624-23.331 5.594-7.806 12.568-22.532 15.558-32.852l2.318-8 .264-199.75c.146-109.862.596-199.733 1-199.712.405.021 68.911 86.236 152.236 191.588 87.382 110.482 154.255 194.158 158.01 197.712 11.115 10.521 24.026 17.888 40.057 22.858l7.433 2.304 300.5.303c220.896.222 302.44.001 307.823-.835 13.337-2.071 27.915-8.119 39.681-16.461 6.791-4.815 18.542-16.807 23.427-23.906 4.69-6.818 11.558-21.804 14.251-31.101l2.318-8 .276-242c.248-218.376.119-242.776-1.322-249.953-4.029-20.064-12.493-36.421-26.266-50.762-14.251-14.839-33.79-24.913-53.851-27.764-5.624-.799-71.938-1.03-234.837-.817l-227 .296-9 2.795c-12.881 4-23.965 9.772-33.603 17.497-24.603 19.721-38.146 50.171-36.561 82.208 2.155 43.541 28.669 77.819 70.164 90.705l9 2.795 176.25.269 176.25.269V977l-217.75-.026-217.75-.026L471 799.365c-77.275-97.671-140.5-178.158-140.5-178.86 0-.702 63.225-81.191 140.5-178.864l140.5-177.588 268.178-.026c184.907-.019 270.566-.359 275.871-1.097 26.201-3.644 50.484-18.89 65.643-41.213 5.262-7.748 10.054-18.199 13.442-29.317 2.489-8.165 2.719-10.344 2.79-26.4.089-20.368-1.454-27.948-8.89-43.678-5.443-11.514-9.026-16.728-17.946-26.119-11.797-12.419-25.007-20.522-42.3-25.946L1159.5 67.5h-609l-8 2.295c-16.532 4.744-32.705 14.406-44.111 26.352-4.031 4.222-161.801 203.123-286.792 361.56-10.503 13.314-19.428 24.226-19.833 24.25-.404.024-.854-89.844-1-199.707L190.5 82.5l-2.318-8c-2.99-10.32-9.964-25.046-15.558-32.852-5.032-7.022-16.984-18.826-23.624-23.331-10.404-7.059-25.226-13.104-37.434-15.266-7.95-1.408-25.539-1.172-33.566.451" fill="undefined" fill-rule="evenodd"/></svg>